#!OML:ASF X:\für Bonn\!DataBase\2005_08_12_Daniel\c3d\Daniel.ASF
:FULLY-SPECIFIED
:DEGREES
35
root 2.74955 16.9414 0.197808 303.979 -89.2963 -317.705
lowerback 19.5513 -2.91303 0.763388
upperback 2.90793 -4.04727 -2.08755
thorax -7.98471 -2.0835 -1.62316
lowerneck 8.8036 2.92899 -1.23656
upperneck 23.944 2.30323 1.13525
head 5.82602 0.511557 0.566167
rclavicle -1.05107e-014 -2.78299e-015
rhumerus 449.901 -5.89696 -45.0748
rradius 20.7456
rwrist -361.429
rhand -26.2801 17.4065
rfingers 7.12502
rthumb 0.275243 -12.5731
lclavicle -1.05107e-014 -2.78299e-015
lhumerus 77.5494 9.70289 49.7752
lradius 37.7285
lwrist 9.65224
lhand -15.4394 4.21326
lfingers 7.12502
lthumb 10.7409 33.9187
rfemur 8.39015 7.09557 12.2724
rtibia 23.6889
rfoot -24.5438 -19.3819
rtoes -10.0095
lfemur 1.28736 -12.0752 -15.2038
ltibia 34.535
lfoot -26.4151 6.71878
ltoes -0.223762
36
root 2.71575 16.9431 0.191333 305.898 -89.3226 -319.53
lowerback 19.6182 -2.93908 0.555427
upperback 2.60109 -4.10738 -1.98559
thorax -8.33665 -2.09855 -1.36894
lowerneck 9.7976 3.01313 -1.14256
upperneck 24.0197 2.33888 1.09625
head 5.69741 0.504956 0.527181
rclavicle -4.72533e-014 -1.27222e-014
rhumerus 447.931 -10.5609 -36.2164
rradius 22.777
rwrist -367.87
rhand -26.4056 15.6842
rfingers 7.12502
rthumb 0.15399 -14.2955
lclavicle -4.72533e-014 -1.27222e-014
lhumerus 78.5634 13.0759 45.5962
lradius 35.7251
lwrist 10.8247
lhand -15.023 4.19489
lfingers 7.12502
lthumb 11.1426 33.8791
rfemur 8.46839 7.18901 12.3828
rtibia 23.633
rfoot -24.7169 -19.4464
rtoes -9.99879
lfemur 1.32929 -12.1465 -15.1605
ltibia 34.5305
lfoot -26.5537 6.703
ltoes -0.179542
37
root 2.68156 16.9441 0.185546 307.851 -89.3349 -321.377
lowerback 19.6409 -2.95721 0.365937
upperback 2.31214 -4.15741 -1.91483
thorax -8.64864 -2.10901 -1.16367
lowerneck 11.0128 3.08421 -1.02303
upperneck 23.9983 2.34776 1.07092
head 5.50667 0.486182 0.485243
rclavicle -2.13336e-014 4.37326e-015
rhumerus 444.352 -15.0064 -26.4051
rradius 24.8543
rwrist -375.129
rhand -26.9306 13.9734
rfingers 7.12502
rthumb -0.35302 -16.0061
lclavicle -2.13336e-014 4.37326e-015
lhumerus 78.7157 16.482 40.417
lradius 34.0637
lwrist 12.5758
lhand -14.6707 4.46551
lfingers 7.12502
lthumb 11.4824 34.131
rfemur 8.55199 7.30717 12.4886
rtibia 23.5575
rfoot -24.912 -19.5296
rtoes -9.96989
lfemur 1.35455 -12.2059 -15.1308
ltibia 34.5299
lfoot -26.6554 6.71586
ltoes -0.233043
38
root 2.64708 16.9461 0.180608 310.965 -89.3259 -324.381
lowerback 19.5941 -2.99227 0.151321
upperback 2.06441 -4.23585 -1.84113
thorax -8.87638 -2.13203 -0.937419
lowerneck 12.4989 3.16984 -0.898424
upperneck 23.7511 2.38351 1.01549
head 5.20705 0.480767 0.430147
rclavicle 1.09269e-014 -1.07344e-014
rhumerus 439.49 -18.7279 -16.291
rradius 26.8096
rwrist -382.485
rhand -27.7529 12.6205
rfingers 7.12502
rthumb -1.14725 -17.3562
lclavicle 1.09269e-014 -1.07344e-014
lhumerus 77.4856 19.9751 33.9222
lradius 33.0365
lwrist 15.3107
lhand -14.3425 4.99616
lfingers 7.12502
lthumb 11.7988 34.6438
rfemur 8.64288 7.39399 12.5865
rtibia 23.4678
rfoot -25.0799 -19.6512
rtoes -10.0114
lfemur 1.36341 -12.2261 -15.0811
ltibia 34.5259
lfoot -26.7525 6.64094
ltoes -0.201492
39
root 2.61184 16.9472 0.175531 313.907 -89.3234 -327.216
lowerback 19.4924 -3.02097 -0.0926684
upperback 1.84131 -4.31036 -1.74596
thorax -9.04233 -2.1514 -0.675713
lowerneck 14.2713 3.26013 -0.787386
upperneck 23.3229 2.42476 0.935648
head 4.81449 0.475113 0.366732
rclavicle -1.12935e-014 -2.78299e-015
rhumerus 433.332 -21.4365 -5.76545
rradius 28.9114
rwrist -390.025
rhand -28.829 11.6338
rfingers 7.12502
rthumb -2.18652 -18.3347
lclavicle -1.12935e-014 -2.78299e-015
lhumerus 74.8629 23.2547 26.4476
lradius 32.502
lwrist 18.5784
lhand -14.0346 5.7498
lfingers 7.12502
lthumb 12.0957 35.3802
rfemur 8.73856 7.49802 12.6869
rtibia 23.3681
rfoot -25.2537 -19.753
rtoes -10.0028
lfemur 1.38989 -12.2938 -15.0497
ltibia 34.5276
lfoot -26.8739 6.60237
ltoes -0.151678
40
root 2.57671 16.9476 0.170606 317.949 -89.3174 -331.142
lowerback 19.3676 -3.06609 -0.329736
upperback 1.62658 -4.40388 -1.63966
thorax -9.18534 -2.17928 -0.402269
lowerneck 16.2087 3.38184 -0.787471
upperneck 22.8004 2.48495 0.893856
head 4.37571 0.469823 0.332526
rclavicle -4.34717e-014 -7.95139e-015
rhumerus 426.399 -22.9106 4.56756
rradius 31.0669
rwrist -397.343
rhand -30.0342 11.1133
rfingers 7.12502
rthumb -3.35049 -18.8401
lclavicle -4.34717e-014 -7.95139e-015
lhumerus 70.707 26.0269 17.8758
lradius 32.3608
lwrist 22.4471
lhand -13.8228 6.61032
lfingers 7.12502
lthumb 12.2999 36.2286
rfemur 8.83982 7.60227 12.8026
rtibia 23.2602
rfoot -25.4498 -19.8288
rtoes -9.94371
lfemur 1.38605 -12.2755 -14.9747
ltibia 34.532
lfoot -26.9521 6.51739
ltoes -0.16839
41
root 2.54148 16.9492 0.166568 320.899 -89.284 -333.958
lowerback 19.1723 -3.10376 -0.595466
upperback 1.46541 -4.49195 -1.52053
thorax -9.22579 -2.20444 -0.106022
lowerneck 18.7326 3.51919 -0.870245
upperneck 21.4494 2.55644 0.833011
head 4.06122 0.465069 0.322792
rclavicle -7.70415e-014 -7.95139e-015
rhumerus 419.735 -23.3517 13.7338
rradius 32.5525
rwrist -403.606
rhand -31.0965 11.2161
rfingers 7.12502
rthumb -4.37628 -18.7187
lclavicle -7.70415e-014 -7.95139e-015
lhumerus 65.1075 28.0063 8.4332
lradius 32.6068
lwrist 26.864
lhand -13.9581 7.59771
lfingers 7.12502
lthumb 12.1695 37.2237
rfemur 8.92251 7.66788 12.8783
rtibia 23.1477
rfoot -25.599 -19.9393
rtoes -9.96884
lfemur 1.37269 -12.3278 -14.9461
ltibia 34.5337
lfoot -27.0419 6.46695
ltoes -0.187181
42
root 2.50588 16.9509 0.162531 324.549 -89.2587 -337.472
lowerback 18.927 -3.13421 -0.795856
upperback 1.34321 -4.55812 -1.42588
thorax -9.2014 -2.22368 0.116425
lowerneck 20.8172 3.63911 -0.939323
upperneck 20.7684 2.59809 0.829215
head 3.48719 0.452042 0.307372
rclavicle -5.76103e-014 2.38542e-015
rhumerus 412.893 -22.6637 22.4973
rradius 33.9316
rwrist -409.709
rhand -32.1099 11.7174
rfingers 7.12502
rthumb -5.35481 -18.1949
lclavicle -5.76103e-014 2.38542e-015
lhumerus 58.134 28.7535 -2.10975
lradius 33.1992
lwrist 32.3416
lhand -14.4716 8.75461
lfingers 7.12502
lthumb 11.6743 38.4094
rfemur 9.01564 7.78809 12.9874
rtibia 23.0155
rfoot -25.7897 -20.0745
rtoes -9.94974
lfemur 1.34627 -12.3388 -14.8894
ltibia 34.5406
lfoot -27.0976 6.40814
ltoes -0.210946
43
root 2.47076 16.954 0.159139 326.328 -89.193 -339.091
lowerback 18.6423 -3.16279 -0.957377
upperback 1.22899 -4.61829 -1.38941
thorax -9.15366 -2.24362 0.249366
lowerneck 23.2646 3.76902 -1.03321
upperneck 19.8319 2.63281 0.876628
head 2.78979 0.434293 0.310197
rclavicle -5.4877e-014 2.10712e-014
rhumerus 406.403 -20.9442 30.3439
rradius 35.0371
rwrist -415.275
rhand -33.0118 12.4194
rfingers 7.12502
rthumb -6.22557 -17.4691
lclavicle -5.4877e-014 2.10712e-014
lhumerus 50.4472 27.9264 -13.2075
lradius 33.9503
lwrist 38.8119
lhand -15.4251 10.2373
lfingers 7.12502
lthumb 10.7547 39.942
rfemur 9.09327 7.86559 13.0422
rtibia 22.875
rfoot -25.9456 -20.2181
rtoes -9.97569
lfemur 1.29885 -12.3912 -14.8794
ltibia 34.5414
lfoot -27.1836 6.34084
ltoes -0.170361
44
root 2.43538 16.9568 0.155824 330.678 -89.157 -343.285
lowerback 18.3424 -3.20452 -1.09606
upperback 1.1522 -4.68527 -1.30235
thorax -9.05274 -2.26802 0.422909
lowerneck 25.599 3.95077 -1.25806
upperneck 18.8884 2.70111 0.97759
head 2.1275 0.425557 0.353505
rclavicle 2.43635e-014 1.03368e-014
rhumerus 400.714 -18.5012 37.0976
rradius 35.653
rwrist -420.256
rhand -33.7061 13.3493
rfingers 7.12502
rthumb -6.89585 -16.5184
lclavicle 2.43635e-014 1.03368e-014
lhumerus 42.0361 24.8794 -25.1321
lradius 34.9215
lwrist 47.3095
lhand -17.1691 11.8085
lfingers 7.12502
lthumb 9.0722 41.5934
rfemur 9.18835 7.97304 13.1617
rtibia 22.7131
rfoot -26.1408 -20.3468
rtoes -9.93457
lfemur 1.24236 -12.3891 -14.7977
ltibia 34.5477
lfoot -27.227 6.27389
ltoes -0.241788
